<svg width="10" height="12" viewBox="0 0 10 12" fill="none" xmlns="http://www.w3.org/2000/svg">
<path fill-rule="evenodd" clip-rule="evenodd" d="M0.417969 4.582V4.69667C0.417969 7.004 3.3393 10.4773 4.51664 11.784C4.77597 12.072 5.22397 12.072 5.4833 11.784C6.66064 10.4773 9.58197 7.004 9.58197 4.69667V4.582C9.58197 2.05133 7.53064 0 4.99997 0C2.4693 0 0.417969 2.05133 0.417969 4.582ZM4.99996 5.9699C4.26329 5.9699 3.66663 5.37323 3.66663 4.63656V4.6119C3.66663 3.87523 4.26329 3.27856 4.99996 3.27856C5.73663 3.27856 6.33329 3.87523 6.33329 4.6119V4.63656C6.33329 5.37323 5.73663 5.9699 4.99996 5.9699Z" fill="#B9BCC1"/>
</svg>
