<svg width="80" height="80" viewBox="0 0 80 80" fill="none" xmlns="http://www.w3.org/2000/svg">
<rect width="80" height="80" fill="#252931" fill-opacity="0.75"/>
<path fill-rule="evenodd" clip-rule="evenodd" d="M46 29.0001V23.0001C46 22.2634 45.4033 21.6667 44.6667 21.6667H43.3333L42.3247 19.9894C42.204 19.7894 41.9873 19.6667 41.7533 19.6667H38.2173C37.98 19.6667 37.7607 19.7927 37.6413 19.9974L36.6667 21.6667H35.3333C34.5967 21.6667 34 22.2634 34 23.0001V29.0001C34 29.7367 34.5967 30.3334 35.3333 30.3334H44.6667C45.4033 30.3334 46 29.7367 46 29.0001ZM38.5141 24.1321C39.3569 23.2893 40.7233 23.2893 41.566 24.1321C42.4088 24.9748 42.4088 26.3412 41.566 27.1839C40.7233 28.0267 39.3569 28.0267 38.5141 27.1839C37.6714 26.3412 37.6714 24.9748 38.5141 24.1321ZM37.807 23.425C39.0403 22.1917 41.0398 22.1917 42.2731 23.425C43.5064 24.6582 43.5064 26.6578 42.2731 27.891C41.0398 29.1243 39.0403 29.1243 37.807 27.891C36.5738 26.6578 36.5738 24.6582 37.807 23.425Z" fill="#E0E7EE"/>
<path d="M14.6189 48.15C14.1089 48.15 13.6605 48.075 13.2739 47.925C12.8905 47.775 12.5672 47.5833 12.3039 47.35C12.0405 47.1133 11.8355 46.8667 11.6889 46.61L12.8389 45.81C12.9189 45.9767 13.0322 46.1417 13.1789 46.305C13.3255 46.4683 13.5205 46.6033 13.7639 46.71C14.0072 46.8167 14.3122 46.87 14.6789 46.87C15.0255 46.87 15.3039 46.82 15.5139 46.72C15.7272 46.62 15.8805 46.4917 15.9739 46.335C16.0705 46.1783 16.1189 46.0133 16.1189 45.84C16.1189 45.61 16.0505 45.4333 15.9139 45.31C15.7805 45.1867 15.6072 45.1017 15.3939 45.055C15.1805 45.005 14.9555 44.9767 14.7189 44.97C14.4889 44.9633 14.3222 44.9583 14.2189 44.955C14.1189 44.9517 14.0505 44.95 14.0139 44.95C13.9805 44.95 13.9489 44.95 13.9189 44.95V43.67C13.9622 43.67 14.0255 43.67 14.1089 43.67C14.1955 43.67 14.2822 43.67 14.3689 43.67C14.4589 43.6667 14.5322 43.6633 14.5889 43.66C14.9389 43.6433 15.2305 43.5667 15.4639 43.43C15.7005 43.2933 15.8189 43.08 15.8189 42.79C15.8189 42.5233 15.7139 42.3117 15.5039 42.155C15.2972 41.9983 15.0189 41.92 14.6689 41.92C14.3389 41.92 14.0439 41.9917 13.7839 42.135C13.5272 42.275 13.3389 42.43 13.2189 42.6L12.2889 41.6C12.5389 41.34 12.8739 41.1167 13.2939 40.93C13.7139 40.7433 14.1855 40.65 14.7089 40.65C15.0255 40.65 15.3355 40.6917 15.6389 40.775C15.9422 40.855 16.2155 40.98 16.4589 41.15C16.7022 41.3167 16.8955 41.5317 17.0389 41.795C17.1855 42.0583 17.2589 42.3733 17.2589 42.74C17.2589 43.05 17.2039 43.3433 17.0939 43.62C16.9839 43.8933 16.8255 44.1233 16.6189 44.31C16.9189 44.4433 17.1505 44.6367 17.3139 44.89C17.4772 45.1433 17.5589 45.46 17.5589 45.84C17.5589 46.3167 17.4255 46.7283 17.1589 47.075C16.8955 47.4183 16.5405 47.6833 16.0939 47.87C15.6505 48.0567 15.1589 48.15 14.6189 48.15ZM18.4588 48L20.6588 40.8H22.6888L24.8888 48H23.4888L21.5288 41.65H21.7888L19.8588 48H18.4588ZM19.7788 46.5V45.23H23.5788V46.5H19.7788ZM26.085 48V40.8H27.305L29.685 45.58L32.065 40.8H33.285V48H32.015V43.7L29.925 48H29.445L27.355 43.7V48H26.085ZM34.9885 48V40.8H39.6885V42.07H36.3485V43.61H39.0885V44.88H36.3485V46.73H39.6885V48H34.9885ZM41.1869 48V40.8H42.5469V43.76H45.7669V40.8H47.1269V48H45.7669V45.03H42.5469V48H41.1869ZM54.7207 48H53.3407V43.2L50.2107 48H48.8307V40.8H50.2107V45.6L53.3407 40.8H54.7207V48ZM58.0858 48V42.07H55.8158V40.8H61.7158V42.07H59.4458V48H58.0858ZM62.8093 48V40.8H64.1693V43.24H65.8493C65.916 43.24 66.0093 43.2433 66.1293 43.25C66.2493 43.2533 66.356 43.2633 66.4493 43.28C66.876 43.3467 67.226 43.4883 67.4993 43.705C67.776 43.9217 67.9793 44.195 68.1093 44.525C68.2427 44.8517 68.3093 45.2167 68.3093 45.62C68.3093 46.0233 68.2443 46.39 68.1143 46.72C67.9843 47.0467 67.781 47.3183 67.5043 47.535C67.231 47.7517 66.8793 47.8933 66.4493 47.96C66.356 47.9733 66.2493 47.9833 66.1293 47.99C66.0127 47.9967 65.9193 48 65.8493 48H62.8093ZM64.1693 46.73H65.7893C65.8593 46.73 65.936 46.7267 66.0193 46.72C66.1027 46.7133 66.1793 46.7 66.2493 46.68C66.4327 46.63 66.5743 46.5467 66.6743 46.43C66.7743 46.31 66.8427 46.1783 66.8793 46.035C66.9193 45.8883 66.9393 45.75 66.9393 45.62C66.9393 45.49 66.9193 45.3533 66.8793 45.21C66.8427 45.0633 66.7743 44.9317 66.6743 44.815C66.5743 44.695 66.4327 44.61 66.2493 44.56C66.1793 44.54 66.1027 44.5267 66.0193 44.52C65.936 44.5133 65.8593 44.51 65.7893 44.51H64.1693V46.73ZM28.3375 63V61.95C27.9675 62.0133 27.6159 62 27.2825 61.91C26.9525 61.8167 26.6592 61.6533 26.4025 61.42C26.1459 61.1833 25.9442 60.88 25.7975 60.51C25.6509 60.1367 25.5775 59.7 25.5775 59.2C25.5775 58.7 25.6509 58.2617 25.7975 57.885C25.9442 57.5083 26.1459 57.2 26.4025 56.96C26.6592 56.7167 26.9525 56.5467 27.2825 56.45C27.6159 56.3533 27.9675 56.3367 28.3375 56.4V55.8H29.6875V56.4C30.0575 56.3367 30.4092 56.3533 30.7425 56.45C31.0759 56.5467 31.3709 56.7167 31.6275 56.96C31.8842 57.2 32.0859 57.5083 32.2325 57.885C32.3825 58.2617 32.4575 58.7 32.4575 59.2C32.4575 59.7 32.3825 60.1367 32.2325 60.51C32.0859 60.88 31.8842 61.1833 31.6275 61.42C31.3709 61.6533 31.0759 61.8167 30.7425 61.91C30.4092 62 30.0575 62.0133 29.6875 61.95V63H28.3375ZM28.3375 60.71V57.62C28.0542 57.5733 27.8209 57.5917 27.6375 57.675C27.4575 57.7583 27.3175 57.8817 27.2175 58.045C27.1209 58.205 27.0525 58.3883 27.0125 58.595C26.9759 58.7983 26.9575 59 26.9575 59.2C26.9575 59.4 26.9759 59.5983 27.0125 59.795C27.0525 59.9917 27.1209 60.1683 27.2175 60.325C27.3175 60.4783 27.4575 60.5917 27.6375 60.665C27.8209 60.7383 28.0542 60.7533 28.3375 60.71ZM29.6875 60.71C29.9709 60.7533 30.2025 60.7383 30.3825 60.665C30.5625 60.5883 30.7025 60.475 30.8025 60.325C30.9059 60.1717 30.9775 60 31.0175 59.81C31.0575 59.6167 31.0775 59.4267 31.0775 59.24C31.0775 59.0533 31.0575 58.8567 31.0175 58.65C30.9775 58.4433 30.9059 58.255 30.8025 58.085C30.7025 57.9117 30.5625 57.78 30.3825 57.69C30.2025 57.5967 29.9709 57.5733 29.6875 57.62V60.71ZM36.848 63.15C36.128 63.15 35.5063 62.9933 34.983 62.68C34.463 62.3667 34.0613 61.9283 33.778 61.365C33.498 60.8017 33.358 60.1467 33.358 59.4C33.358 58.6533 33.498 57.9983 33.778 57.435C34.0613 56.8717 34.463 56.4333 34.983 56.12C35.5063 55.8067 36.128 55.65 36.848 55.65C37.568 55.65 38.188 55.8067 38.708 56.12C39.2313 56.4333 39.633 56.8717 39.913 57.435C40.1963 57.9983 40.338 58.6533 40.338 59.4C40.338 60.1467 40.1963 60.8017 39.913 61.365C39.633 61.9283 39.2313 62.3667 38.708 62.68C38.188 62.9933 37.568 63.15 36.848 63.15ZM36.848 61.87C37.3047 61.8767 37.6847 61.7783 37.988 61.575C38.2913 61.3717 38.518 61.0833 38.668 60.71C38.8213 60.3367 38.898 59.9 38.898 59.4C38.898 58.9 38.8213 58.4667 38.668 58.1C38.518 57.7333 38.2913 57.4483 37.988 57.245C37.6847 57.0417 37.3047 56.9367 36.848 56.93C36.3913 56.9233 36.0113 57.0217 35.708 57.225C35.4047 57.4283 35.1763 57.7167 35.023 58.09C34.873 58.4633 34.798 58.9 34.798 59.4C34.798 59.9 34.873 60.3333 35.023 60.7C35.1763 61.0667 35.4047 61.3517 35.708 61.555C36.0113 61.7583 36.3913 61.8633 36.848 61.87ZM43.1108 63V57.07H40.8408V55.8H46.7408V57.07H44.4708V63H43.1108ZM50.9343 63.15C50.2143 63.15 49.5927 62.9933 49.0693 62.68C48.5493 62.3667 48.1477 61.9283 47.8643 61.365C47.5843 60.8017 47.4443 60.1467 47.4443 59.4C47.4443 58.6533 47.5843 57.9983 47.8643 57.435C48.1477 56.8717 48.5493 56.4333 49.0693 56.12C49.5927 55.8067 50.2143 55.65 50.9343 55.65C51.6543 55.65 52.2743 55.8067 52.7943 56.12C53.3177 56.4333 53.7193 56.8717 53.9993 57.435C54.2827 57.9983 54.4243 58.6533 54.4243 59.4C54.4243 60.1467 54.2827 60.8017 53.9993 61.365C53.7193 61.9283 53.3177 62.3667 52.7943 62.68C52.2743 62.9933 51.6543 63.15 50.9343 63.15ZM50.9343 61.87C51.391 61.8767 51.771 61.7783 52.0743 61.575C52.3777 61.3717 52.6043 61.0833 52.7543 60.71C52.9077 60.3367 52.9843 59.9 52.9843 59.4C52.9843 58.9 52.9077 58.4667 52.7543 58.1C52.6043 57.7333 52.3777 57.4483 52.0743 57.245C51.771 57.0417 51.391 56.9367 50.9343 56.93C50.4777 56.9233 50.0977 57.0217 49.7943 57.225C49.491 57.4283 49.2627 57.7167 49.1093 58.09C48.9593 58.4633 48.8843 58.9 48.8843 59.4C48.8843 59.9 48.9593 60.3333 49.1093 60.7C49.2627 61.0667 49.491 61.3517 49.7943 61.555C50.0977 61.7583 50.4777 61.8633 50.9343 61.87Z" fill="white"/>
</svg>
