<svg width="14" height="14" viewBox="0 0 14 14" fill="none" xmlns="http://www.w3.org/2000/svg">
<path fill-rule="evenodd" clip-rule="evenodd" d="M11.7142 11.7139C14.3177 9.11047 14.3177 4.88937 11.7142 2.28587C9.11071 -0.317621 4.88961 -0.317621 2.28612 2.28587C-0.317377 4.88934 -0.317377 9.11044 2.28612 11.7139C4.88958 14.3174 9.11069 14.3174 11.7142 11.7139ZM8.75367 3.99536C8.47753 3.99536 8.25367 4.21922 8.25367 4.49536C8.25367 4.7715 8.47753 4.99536 8.75367 4.99536H10.5823C10.8585 4.99536 11.0823 4.7715 11.0823 4.49536C11.0823 4.21922 10.8585 3.99536 10.5823 3.99536H8.75367ZM3.58301 6.16736V5.0007H4.79701C5.11887 5.0007 5.38034 5.26217 5.38034 5.58403C5.38034 5.90573 5.11912 6.1671 4.79748 6.16736L4.79701 6.16736H3.58301ZM6.38034 5.58403C6.38034 5.88881 6.29413 6.17354 6.14477 6.41515C6.70358 6.73699 7.07973 7.34005 7.08034 8.03092L7.08034 8.03136C7.08034 9.06166 6.24499 9.89603 5.21567 9.89603H3.24967C2.88153 9.89603 2.58301 9.5975 2.58301 9.22936V6.66736V4.66736C2.58301 4.29922 2.88153 4.0007 3.24967 4.0007H4.79701C5.67115 4.0007 6.38034 4.70989 6.38034 5.58403ZM4.79701 7.16736L4.79779 7.16736H5.21501C5.69285 7.16736 6.07978 7.55421 6.08034 8.03155C6.08024 8.50916 5.69296 8.89603 5.21567 8.89603H3.58301V7.16736L4.79657 7.16736L4.79701 7.16736ZM10.7033 7.16203H8.63342C8.77025 6.72051 9.18171 6.40003 9.66834 6.40003C10.155 6.40003 10.5664 6.72051 10.7033 7.16203ZM7.58501 7.48336V7.66009L7.58436 7.74555L7.58434 7.74555V7.74936C7.58434 8.93577 8.54646 9.89669 9.73234 9.89669C10.2789 9.89669 10.826 9.68783 11.244 9.27409C11.4403 9.07985 11.442 8.76327 11.2477 8.56699C11.0535 8.37071 10.7369 8.36906 10.5406 8.5633C10.3161 8.78555 10.0245 8.89669 9.73234 8.89669C9.2438 8.89669 8.82663 8.59177 8.66083 8.16203H11.0997C11.4634 8.16203 11.7489 7.86742 11.7517 7.514H11.7517V7.51003V7.48336C11.7517 6.33255 10.8191 5.40003 9.66834 5.40003C8.51753 5.40003 7.58501 6.33255 7.58501 7.48336Z" fill="#B9BCC1"/>
</svg>
