<svg width="56" height="56" viewBox="0 0 56 56" fill="none" xmlns="http://www.w3.org/2000/svg">
<rect width="56" height="56" rx="4" fill="#11316A"/>
<g clip-path="url(#clip0_417_447)">
<path d="M36.0025 39.1975H19.9975C18.9379 39.1956 17.9223 38.7738 17.173 38.0245C16.4238 37.2753 16.002 36.2596 16 35.2V25.6075C16 24.5466 16.4209 23.5291 17.1704 22.7782C17.9198 22.0274 18.9366 21.6045 19.9975 21.6025H36.0025C37.0634 21.6045 38.0802 22.0274 38.8296 22.7782C39.5791 23.5291 40 24.5466 40 25.6075V35.2C39.998 36.2596 39.5762 37.2753 38.827 38.0245C38.0777 38.7738 37.0621 39.1956 36.0025 39.1975ZM19.9975 23.2075C19.361 23.2075 18.7505 23.4604 18.3004 23.9105C17.8504 24.3606 17.5975 24.971 17.5975 25.6075V35.2C17.5975 35.8366 17.8504 36.447 18.3004 36.8971C18.7505 37.3472 19.361 37.6 19.9975 37.6H36.0025C36.639 37.6 37.2495 37.3472 37.6996 36.8971C38.1496 36.447 38.4025 35.8366 38.4025 35.2V25.6075C38.4025 24.971 38.1496 24.3606 37.6996 23.9105C37.2495 23.4604 36.639 23.2075 36.0025 23.2075H19.9975Z" fill="white"/>
<path d="M31.9975 20.8C31.8921 20.8 31.7878 20.7792 31.6904 20.7389C31.593 20.6986 31.5046 20.6395 31.43 20.5649C31.3555 20.4904 31.2964 20.402 31.2561 20.3046C31.2158 20.2072 31.195 20.1029 31.195 19.9975V19.2025C31.195 18.9909 31.1115 18.788 30.9626 18.6377C30.8137 18.4874 30.6115 18.402 30.4 18.4H25.6C25.3872 18.4 25.183 18.4845 25.0325 18.635C24.882 18.7855 24.7975 18.9897 24.7975 19.2025V19.9975C24.8083 20.1089 24.7957 20.2213 24.7605 20.3275C24.7252 20.4338 24.6682 20.5315 24.593 20.6143C24.5177 20.6972 24.426 20.7634 24.3237 20.8088C24.2214 20.8541 24.1107 20.8775 23.9988 20.8775C23.8868 20.8775 23.7761 20.8541 23.6738 20.8088C23.5715 20.7634 23.4798 20.6972 23.4045 20.6143C23.3293 20.5315 23.2723 20.4338 23.237 20.3275C23.2018 20.2213 23.1892 20.1089 23.2 19.9975V19.2025C23.2 18.566 23.4529 17.9555 23.9029 17.5054C24.353 17.0553 24.9635 16.8025 25.6 16.8025H30.4C31.0365 16.8025 31.647 17.0553 32.0971 17.5054C32.5471 17.9555 32.8 18.566 32.8 19.2025V19.9975C32.8 20.1029 32.7792 20.2072 32.7389 20.3046C32.6986 20.402 32.6395 20.4904 32.565 20.5649C32.4904 20.6395 32.402 20.6986 32.3046 20.7389C32.2072 20.7792 32.1029 20.8 31.9975 20.8Z" fill="white"/>
<path d="M28 30.7449C27.2238 30.7375 26.4576 30.569 25.75 30.2499L20.5 27.9324C20.3011 27.8459 20.1447 27.6839 20.0652 27.482C19.9858 27.2802 19.9897 27.0551 20.0762 26.8561C20.1628 26.6572 20.3248 26.5008 20.5266 26.4214C20.7284 26.3419 20.9536 26.3459 21.1525 26.4324L26.4025 28.7649C26.9138 28.9917 27.4669 29.1088 28.0262 29.1088C28.5856 29.1088 29.1387 28.9917 29.65 28.7649L34.9 26.4324C34.9985 26.3895 35.1045 26.3665 35.2118 26.3646C35.3192 26.3627 35.4259 26.382 35.5259 26.4214C35.6258 26.4607 35.717 26.5194 35.7943 26.594C35.8716 26.6686 35.9334 26.7576 35.9762 26.8561C36.0191 26.9546 36.0421 27.0606 36.044 27.168C36.0459 27.2754 36.0266 27.3821 35.9873 27.482C35.9479 27.582 35.8893 27.6732 35.8147 27.7504C35.7401 27.8277 35.651 27.8895 35.5525 27.9324L30.25 30.2499C29.5424 30.569 28.7762 30.7375 28 30.7449Z" fill="white"/>
</g>
<defs>
<clipPath id="clip0_417_447">
<rect width="24" height="24" fill="white" transform="translate(16 16)"/>
</clipPath>
</defs>
</svg>
