<svg width="56" height="56" viewBox="0 0 56 56" fill="none" xmlns="http://www.w3.org/2000/svg">
<rect width="56" height="56" rx="4" fill="#E0E7EE"/>
<path d="M28 27.9999C25.2333 27.9999 23.0867 24.9066 23.0867 22.2466C23.0867 21.6014 23.2138 20.9624 23.4607 20.3663C23.7076 19.7702 24.0695 19.2286 24.5257 18.7723C24.982 18.3161 25.5236 17.9542 26.1197 17.7073C26.7159 17.4603 27.3548 17.3333 28 17.3333C28.6452 17.3333 29.2841 17.4603 29.8803 17.7073C30.4764 17.9542 31.018 18.3161 31.4743 18.7723C31.9305 19.2286 32.2924 19.7702 32.5393 20.3663C32.7862 20.9624 32.9133 21.6014 32.9133 22.2466C32.9133 24.9066 30.7667 27.9999 28 27.9999ZM28 18.7533C27.0735 18.7533 26.185 19.1213 25.5298 19.7764C24.8747 20.4316 24.5067 21.3201 24.5067 22.2466C24.5067 24.1933 26.12 26.5799 28 26.5799C29.88 26.5799 31.4933 24.1999 31.4933 22.2466C31.4933 21.7878 31.403 21.3336 31.2274 20.9097C31.0519 20.4859 30.7945 20.1008 30.4702 19.7764C30.1458 19.452 29.7607 19.1947 29.3368 19.0192C28.913 18.8436 28.4588 18.7533 28 18.7533Z" fill="#11316A"/>
<path d="M36.5333 38.6666H19.4667C19.2775 38.6666 19.096 38.5915 18.9623 38.4577C18.8285 38.3239 18.7533 38.1425 18.7533 37.9533V35.82C18.7571 34.1232 19.4303 32.4965 20.6267 31.2933C21.2197 30.697 21.9251 30.2243 22.7022 29.9028C23.4792 29.5812 24.3124 29.4171 25.1533 29.42C25.2472 29.4194 25.3403 29.4373 25.4273 29.4728C25.5142 29.5082 25.5933 29.5605 25.66 29.6266L27.5 31.4666C27.6361 31.5951 27.8162 31.6666 28.0033 31.6666C28.1905 31.6666 28.3706 31.5951 28.5067 31.4666L30.3467 29.6266C30.4797 29.4948 30.6593 29.4205 30.8467 29.42C31.6876 29.4171 32.5208 29.5812 33.2978 29.9028C34.0749 30.2243 34.7803 30.697 35.3733 31.2933C36.5697 32.4965 37.2429 34.1232 37.2467 35.82V37.9533C37.2467 38.047 37.2282 38.1397 37.1924 38.2263C37.1565 38.3128 37.104 38.3915 37.0377 38.4577C36.9715 38.5239 36.8929 38.5765 36.8063 38.6123C36.7198 38.6482 36.627 38.6666 36.5333 38.6666ZM20.18 37.2466H35.82V35.82C35.8191 34.554 35.3362 33.3359 34.4693 32.4134C33.6024 31.4908 32.4168 30.9329 31.1533 30.8533L29.9533 32.0533L29.5333 32.4733C29.1261 32.8582 28.587 33.0727 28.0267 33.0727C27.4663 33.0727 26.9272 32.8582 26.52 32.4733L24.8667 30.8533C23.6462 30.921 22.4942 31.4388 21.6333 32.3066C20.7017 33.2416 20.177 34.5067 20.1733 35.8266L20.18 37.2466Z" fill="#11316A"/>
</svg>
