<svg width="12" height="12" viewBox="0 0 12 12" fill="none" xmlns="http://www.w3.org/2000/svg">
<path d="M4.75533 3.862L3.372 3.362C3.064 3.25067 2.73667 3.474 2.728 3.80133L2.69333 5.09C2.35267 5.51 2.154 5.998 2.154 6.52133C2.154 8.01267 3.22867 9.22067 4.58267 9.31533C3.98867 10.2287 4 11.3093 4 11.3093V11.7867C3.328 11.5127 2.052 10.8747 1.182 9.71C0.467333 8.75333 0 7.474 0 6.12333C0 4.338 0.685333 2.92867 1.608 1.93133C2.826 0.616 4.502 0 6 0C7.498 0 9.174 0.616 10.392 1.93133C11.3147 2.92867 12 4.338 12 6.12333C12 7.47467 11.5327 8.75333 10.818 9.71C9.948 10.8747 8.672 11.5127 8 11.7867V11.3093C8 11.3093 8.01133 10.2287 7.41733 9.31533C8.77133 9.22067 9.846 8.01267 9.846 6.52133C9.846 5.998 9.64667 5.51 9.30667 5.09L9.272 3.802C9.26333 3.47467 8.936 3.25133 8.628 3.36267L7.24467 3.86267C6.854 3.76467 6.436 3.70933 6 3.70933C5.564 3.70933 5.146 3.76467 4.75533 3.862Z" fill="#B9BCC1"/>
</svg>
