<svg width="40" height="40" viewBox="0 0 40 40" fill="none" xmlns="http://www.w3.org/2000/svg">
<g clip-path="url(#clip0_147_862)">
<path d="M20 39.9998C31.0457 39.9998 40 31.0455 40 19.9998C40 8.95406 31.0457 -0.000244141 20 -0.000244141C8.95431 -0.000244141 0 8.95406 0 19.9998C0 31.0455 8.95431 39.9998 20 39.9998Z" fill="#007AB9"/>
<path d="M31.9497 21.609V29.8545H27.1691V22.1616C27.1691 20.23 26.4789 18.9108 24.748 18.9108C23.4271 18.9108 22.6424 19.7989 22.2959 20.6589C22.17 20.9662 22.1376 21.3929 22.1376 21.824V29.8542H17.3567C17.3567 29.8542 17.4208 16.8248 17.3567 15.4761H22.1379V17.5136C22.1283 17.5297 22.1148 17.5454 22.1062 17.5607H22.1379V17.5136C22.7733 16.5361 23.9063 15.1385 26.4465 15.1385C29.5917 15.1385 31.9497 17.1935 31.9497 21.609ZM12.3554 8.54541C10.7201 8.54541 9.65015 9.61889 9.65015 11.0293C9.65015 12.4097 10.689 13.5142 12.2927 13.5142H12.3237C13.9911 13.5142 15.0279 12.4097 15.0279 11.0293C14.9961 9.61889 13.9911 8.54541 12.3554 8.54541ZM9.93429 29.8545H14.7134V15.4761H9.93429V29.8545Z" fill="#F1F2F2"/>
</g>
<defs>
<clipPath id="clip0_147_862">
<rect width="40" height="40" fill="white"/>
</clipPath>
</defs>
</svg>
