<svg width="124" height="15" viewBox="0 0 124 15" fill="none" xmlns="http://www.w3.org/2000/svg">
<path d="M5.27195 14.9894C3.86819 14.9894 2.72764 14.6704 1.85029 14.0326C0.972936 13.3948 0.439507 12.4982 0.25 11.343L2.83994 10.939C2.97329 11.506 3.26808 11.9525 3.7243 12.2785C4.18053 12.6045 4.75607 12.7675 5.45093 12.7675C6.06156 12.7675 6.53182 12.6471 6.86171 12.4061C7.19861 12.158 7.36706 11.8214 7.36706 11.3962C7.36706 11.1339 7.30389 10.9249 7.17755 10.769C7.05823 10.606 6.79152 10.45 6.37741 10.3012C5.9633 10.1524 5.3281 9.96456 4.47181 9.73777C3.51725 9.48264 2.75922 9.20978 2.19772 8.91921C1.63621 8.62154 1.23263 8.27073 0.986974 7.86676C0.741316 7.46279 0.618487 6.97378 0.618487 6.39972C0.618487 5.68391 0.804485 5.06024 1.17648 4.5287C1.54848 3.99717 2.06787 3.58965 2.73465 3.30617C3.40144 3.01559 4.18754 2.87031 5.09297 2.87031C5.97734 2.87031 6.75993 3.0085 7.44076 3.2849C8.1286 3.5613 8.68308 3.95464 9.10421 4.46492C9.52534 4.97519 9.78504 5.57406 9.8833 6.26152L7.29336 6.72927C7.23019 6.24025 7.0091 5.854 6.63009 5.57052C6.25809 5.28703 5.75976 5.12757 5.13508 5.09213C4.53848 5.0567 4.0577 5.14883 3.69272 5.36853C3.32774 5.58115 3.14525 5.88235 3.14525 6.27215C3.14525 6.49185 3.21895 6.67966 3.36635 6.83558C3.51374 6.9915 3.80853 7.14741 4.25071 7.30333C4.69992 7.45925 5.3667 7.6506 6.25107 7.87739C7.1565 8.11127 7.87943 8.38058 8.41988 8.68533C8.96735 8.98299 9.3604 9.34089 9.59904 9.75904C9.84469 10.1772 9.96752 10.6839 9.96752 11.2792C9.96752 12.4344 9.5499 13.3416 8.71467 14.0007C7.88645 14.6598 6.73888 14.9894 5.27195 14.9894Z" fill="#252931"/>
<path d="M17.9074 14.9894C16.7704 14.9894 15.7772 14.7307 14.9279 14.2133C14.0787 13.696 13.4189 12.9837 12.9486 12.0765C12.4854 11.1623 12.2538 10.1134 12.2538 8.92984C12.2538 7.72502 12.4924 6.66903 12.9697 5.76187C13.447 4.85471 14.1102 4.146 14.9595 3.63572C15.8088 3.12544 16.7914 2.87031 17.9074 2.87031C19.0515 2.87031 20.0481 3.12899 20.8974 3.64635C21.7467 4.16371 22.4065 4.87952 22.8767 5.79376C23.347 6.70092 23.5821 7.74628 23.5821 8.92984C23.5821 10.1205 23.3435 11.1729 22.8662 12.0872C22.3959 12.9943 21.7362 13.7066 20.8869 14.224C20.0376 14.7342 19.0445 14.9894 17.9074 14.9894ZM17.9074 12.5868C18.9181 12.5868 19.6691 12.2466 20.1604 11.5663C20.6518 10.8859 20.8974 10.0071 20.8974 8.92984C20.8974 7.81715 20.6483 6.93125 20.1499 6.27215C19.6516 5.60595 18.9041 5.27286 17.9074 5.27286C17.2266 5.27286 16.6651 5.42877 16.2229 5.74061C15.7877 6.04536 15.4649 6.47413 15.2543 7.02693C15.0437 7.57264 14.9385 8.20695 14.9385 8.92984C14.9385 10.0425 15.1876 10.932 15.686 11.5982C16.1913 12.2573 16.9318 12.5868 17.9074 12.5868Z" fill="#252931"/>
<path d="M30.1657 15C29.3234 15 28.6286 14.8583 28.0811 14.5748C27.5336 14.2913 27.0985 13.9298 26.7756 13.4904C26.4527 13.051 26.2141 12.5833 26.0597 12.0872C25.9053 11.5911 25.8035 11.1233 25.7544 10.6839C25.7123 10.2374 25.6912 9.87597 25.6912 9.59957V3.18923H28.2601V8.71722C28.2601 9.07158 28.2847 9.472 28.3338 9.9185C28.3829 10.3579 28.4952 10.7831 28.6707 11.1942C28.8532 11.5982 29.1199 11.9313 29.4708 12.1935C29.8288 12.4557 30.3096 12.5868 30.9132 12.5868C31.2361 12.5868 31.5554 12.5337 31.8713 12.4274C32.1871 12.321 32.4714 12.1403 32.724 11.8852C32.9837 11.623 33.1908 11.2651 33.3452 10.8115C33.4996 10.3579 33.5768 9.78384 33.5768 9.0893L35.0824 9.73777C35.0824 10.7158 34.8928 11.6017 34.5138 12.3955C34.1418 13.1892 33.5909 13.8235 32.8609 14.2984C32.131 14.7661 31.2325 15 30.1657 15ZM33.8821 14.6704V11.1091H33.5768V3.18923H36.1246V14.6704H33.8821Z" fill="#252931"/>
<path d="M39.0826 14.6704V3.18923H41.3251V5.98512L41.0513 5.62367C41.1917 5.24096 41.3777 4.89369 41.6093 4.58186C41.848 4.26293 42.1322 4.00071 42.4621 3.79518C42.7429 3.60383 43.0517 3.455 43.3886 3.34869C43.7325 3.23529 44.0835 3.16797 44.4414 3.1467C44.7994 3.11836 45.1468 3.13253 45.4837 3.18923V5.58115C45.1468 5.48193 44.7573 5.45004 44.3151 5.48547C43.8799 5.52091 43.4869 5.64493 43.1359 5.85755C42.785 6.0489 42.4972 6.29341 42.2726 6.59107C42.055 6.88873 41.8936 7.22892 41.7883 7.61162C41.683 7.98724 41.6304 8.39476 41.6304 8.83416V14.6704H39.0826Z" fill="#252931"/>
<path d="M52.2249 14.9894C51.0527 14.9894 50.0526 14.7271 49.2243 14.2027C48.3961 13.6712 47.7609 12.9483 47.3187 12.034C46.8836 11.1198 46.6625 10.085 46.6555 8.92984C46.6625 7.75337 46.8906 6.71155 47.3398 5.80439C47.796 4.89015 48.4418 4.17434 49.277 3.65698C50.1122 3.13253 51.1054 2.87031 52.2565 2.87031C53.5479 2.87031 54.6394 3.19986 55.5307 3.85896C56.4291 4.51098 57.0152 5.40397 57.2889 6.53792L54.7622 7.22892C54.5657 6.61233 54.2393 6.13395 53.7831 5.79376C53.3268 5.44649 52.8074 5.27286 52.2249 5.27286C51.5651 5.27286 51.0212 5.43232 50.593 5.75124C50.1649 6.06308 49.849 6.49539 49.6455 7.04819C49.4419 7.60099 49.3402 8.22821 49.3402 8.92984C49.3402 10.0213 49.5823 10.9036 50.0666 11.5769C50.5509 12.2502 51.2703 12.5868 52.2249 12.5868C52.8987 12.5868 53.4286 12.4309 53.8146 12.1191C54.2077 11.8072 54.5025 11.3572 54.699 10.769L57.2889 11.3536C56.938 12.523 56.3239 13.4231 55.4465 14.0539C54.5692 14.6775 53.4953 14.9894 52.2249 14.9894Z" fill="#252931"/>
<path d="M64.2596 14.9894C63.1085 14.9894 62.0978 14.7378 61.2275 14.2346C60.3571 13.7314 59.6763 13.0333 59.185 12.1403C58.7007 11.2473 58.4586 10.2197 58.4586 9.05741C58.4586 7.80298 58.6972 6.7151 59.1745 5.79376C59.6518 4.86534 60.315 4.146 61.1643 3.63572C62.0136 3.12544 62.9962 2.87031 64.1122 2.87031C65.2914 2.87031 66.2915 3.15025 67.1127 3.71014C67.941 4.26293 68.5551 5.04607 68.9552 6.05953C69.3552 7.073 69.5061 8.26719 69.4079 9.6421H66.8916V8.70659C66.8846 7.45925 66.667 6.54855 66.2389 5.97449C65.8108 5.40043 65.1369 5.11339 64.2175 5.11339C63.1787 5.11339 62.4066 5.4394 61.9013 6.09142C61.3959 6.73636 61.1433 7.68249 61.1433 8.92984C61.1433 10.0921 61.3959 10.9922 61.9013 11.63C62.4066 12.2679 63.1436 12.5868 64.1122 12.5868C64.7369 12.5868 65.2738 12.4486 65.723 12.1722C66.1792 11.8887 66.5302 11.4812 66.7758 10.9497L69.2815 11.7151C68.8464 12.7498 68.1726 13.5542 67.2601 14.1283C66.3547 14.7023 65.3545 14.9894 64.2596 14.9894ZM60.3431 9.6421V7.7073H68.1656V9.6421H60.3431Z" fill="#252931"/>
<path d="M76.1472 14.9894C74.7435 14.9894 73.6029 14.6704 72.7256 14.0326C71.8482 13.3948 71.3148 12.4982 71.1253 11.343L73.7152 10.939C73.8486 11.506 74.1434 11.9525 74.5996 12.2785C75.0558 12.6045 75.6314 12.7675 76.3262 12.7675C76.9369 12.7675 77.4071 12.6471 77.737 12.4061C78.0739 12.158 78.2424 11.8214 78.2424 11.3962C78.2424 11.1339 78.1792 10.9249 78.0528 10.769C77.9335 10.606 77.6668 10.45 77.2527 10.3012C76.8386 10.1524 76.2034 9.96456 75.3471 9.73777C74.3925 9.48264 73.6345 9.20978 73.073 8.91921C72.5115 8.62154 72.1079 8.27073 71.8623 7.86676C71.6166 7.46279 71.4938 6.97378 71.4938 6.39972C71.4938 5.68391 71.6798 5.06024 72.0518 4.5287C72.4238 3.99717 72.9432 3.58965 73.6099 3.30617C74.2767 3.01559 75.0628 2.87031 75.9683 2.87031C76.8526 2.87031 77.6352 3.0085 78.3161 3.2849C79.0039 3.5613 79.5584 3.95464 79.9795 4.46492C80.4006 4.97519 80.6603 5.57406 80.7586 6.26152L78.1687 6.72927C78.1055 6.24025 77.8844 5.854 77.5054 5.57052C77.1334 5.28703 76.6351 5.12757 76.0104 5.09213C75.4138 5.0567 74.933 5.14883 74.568 5.36853C74.203 5.58115 74.0206 5.88235 74.0206 6.27215C74.0206 6.49185 74.0942 6.67966 74.2416 6.83558C74.389 6.9915 74.6838 7.14741 75.126 7.30333C75.5752 7.45925 76.242 7.6506 77.1264 7.87739C78.0318 8.11127 78.7547 8.38058 79.2952 8.68533C79.8426 8.98299 80.2357 9.34089 80.4743 9.75904C80.72 10.1772 80.8428 10.6839 80.8428 11.2792C80.8428 12.4344 80.4252 13.3416 79.59 14.0007C78.7617 14.6598 77.6142 14.9894 76.1472 14.9894Z" fill="#252931"/>
<path d="M89.8132 14.6704C89.0622 14.8122 88.3252 14.8724 87.6022 14.8512C86.8863 14.837 86.2441 14.7059 85.6756 14.4578C85.1071 14.2027 84.6754 13.8023 84.3806 13.2566C84.1209 12.7605 83.9841 12.2537 83.97 11.7364C83.956 11.219 83.949 10.6343 83.949 9.98228V0H86.4757V9.83345C86.4757 10.2941 86.4792 10.6981 86.4863 11.0454C86.5003 11.3926 86.574 11.6761 86.7073 11.8958C86.96 12.321 87.3636 12.5585 87.9181 12.6081C88.4726 12.6577 89.1043 12.6293 89.8132 12.523V14.6704ZM81.8854 5.19844V3.18923H89.8132V5.19844H81.8854Z" fill="#252931"/>
<path d="M96.7044 14.9894C95.5673 14.9894 94.5742 14.7307 93.7249 14.2133C92.8756 13.696 92.2158 12.9837 91.7456 12.0765C91.2823 11.1623 91.0507 10.1134 91.0507 8.92984C91.0507 7.72502 91.2894 6.66903 91.7666 5.76187C92.2439 4.85471 92.9072 4.146 93.7565 3.63572C94.6057 3.12544 95.5884 2.87031 96.7044 2.87031C97.8484 2.87031 98.8451 3.12899 99.6944 3.64635C100.544 4.16371 101.203 4.87952 101.674 5.79376C102.144 6.70092 102.379 7.74628 102.379 8.92984C102.379 10.1205 102.14 11.1729 101.663 12.0872C101.193 12.9943 100.533 13.7066 99.6838 14.224C98.8346 14.7342 97.8414 14.9894 96.7044 14.9894ZM96.7044 12.5868C97.7151 12.5868 98.4661 12.2466 98.9574 11.5663C99.4487 10.8859 99.6944 10.0071 99.6944 8.92984C99.6944 7.81715 99.4452 6.93125 98.9469 6.27215C98.4485 5.60595 97.701 5.27286 96.7044 5.27286C96.0235 5.27286 95.462 5.42877 95.0199 5.74061C94.5847 6.04536 94.2618 6.47413 94.0513 7.02693C93.8407 7.57264 93.7354 8.20695 93.7354 8.92984C93.7354 10.0425 93.9846 10.932 94.4829 11.5982C94.9883 12.2573 95.7288 12.5868 96.7044 12.5868Z" fill="#252931"/>
<path d="M104.699 14.6704V3.18923H106.941V5.98512L106.667 5.62367C106.808 5.24096 106.994 4.89369 107.225 4.58186C107.464 4.26293 107.748 4.00071 108.078 3.79518C108.359 3.60383 108.668 3.455 109.005 3.34869C109.349 3.23529 109.7 3.16797 110.058 3.1467C110.416 3.11836 110.763 3.13253 111.1 3.18923V5.58115C110.763 5.48193 110.373 5.45004 109.931 5.48547C109.496 5.52091 109.103 5.64493 108.752 5.85755C108.401 6.0489 108.113 6.29341 107.889 6.59107C107.671 6.88873 107.51 7.22892 107.404 7.61162C107.299 7.98724 107.247 8.39476 107.247 8.83416V14.6704H104.699Z" fill="#252931"/>
<path d="M118.073 14.9894C116.922 14.9894 115.911 14.7378 115.041 14.2346C114.17 13.7314 113.489 13.0333 112.998 12.1403C112.514 11.2473 112.272 10.2197 112.272 9.05741C112.272 7.80298 112.51 6.7151 112.988 5.79376C113.465 4.86534 114.128 4.146 114.977 3.63572C115.827 3.12544 116.809 2.87031 117.925 2.87031C119.104 2.87031 120.105 3.15025 120.926 3.71014C121.754 4.26293 122.368 5.04607 122.768 6.05953C123.168 7.073 123.319 8.26719 123.221 9.6421H120.705V8.70659C120.698 7.45925 120.48 6.54855 120.052 5.97449C119.624 5.40043 118.95 5.11339 118.031 5.11339C116.992 5.11339 116.22 5.4394 115.714 6.09142C115.209 6.73636 114.956 7.68249 114.956 8.92984C114.956 10.0921 115.209 10.9922 115.714 11.63C116.22 12.2679 116.957 12.5868 117.925 12.5868C118.55 12.5868 119.087 12.4486 119.536 12.1722C119.992 11.8887 120.343 11.4812 120.589 10.9497L123.095 11.7151C122.659 12.7498 121.986 13.5542 121.073 14.1283C120.168 14.7023 119.168 14.9894 118.073 14.9894ZM114.156 9.6421V7.7073H121.979V9.6421H114.156Z" fill="#252931"/>
</svg>
