<svg width="12" height="12" viewBox="0 0 12 12" fill="none" xmlns="http://www.w3.org/2000/svg">
<path d="M5.23678 6.76274C4.45678 5.98274 3.86878 5.10941 3.47811 4.22341C3.39545 4.03608 3.44411 3.81674 3.58878 3.67208L4.13478 3.12674C4.58211 2.67941 4.58211 2.04674 4.19145 1.65608L3.40878 0.87341C2.88811 0.352743 2.04411 0.352743 1.52345 0.87341L1.08878 1.30808C0.594779 1.80208 0.388779 2.51474 0.522113 3.22141C0.851446 4.96341 1.86345 6.87074 3.49611 8.50341C5.12878 10.1361 7.03611 11.1481 8.77811 11.4774C9.48478 11.6107 10.1974 11.4047 10.6914 10.9107L11.1254 10.4767C11.6461 9.95608 11.6461 9.11208 11.1254 8.59141L10.3434 7.80941C9.95278 7.41874 9.31945 7.41874 8.92945 7.80941L8.32745 8.41208C8.18278 8.55674 7.96345 8.60541 7.77611 8.52274C6.89011 8.13141 6.01678 7.54274 5.23678 6.76274Z" fill="#B9BCC1"/>
</svg>
