<svg width="40" height="40" viewBox="0 0 40 40" fill="none" xmlns="http://www.w3.org/2000/svg">
<g clip-path="url(#clip0_147_892)">
<path d="M20.0001 39.9996C31.0457 39.9996 39.9999 31.0454 39.9999 19.9998C39.9999 8.95423 31.0457 0 20.0001 0C8.95447 0 0.000244141 8.95423 0.000244141 19.9998C0.000244141 31.0454 8.95447 39.9996 20.0001 39.9996Z" fill="#55ACEE"/>
<path d="M32.2506 14.3734C31.3936 14.7534 30.4716 15.0105 29.5047 15.1253C30.4919 14.5338 31.2495 13.5979 31.6071 12.481C30.6834 13.0289 29.6598 13.4265 28.5714 13.6407C27.6993 12.712 26.4569 12.1316 25.0811 12.1316C22.4414 12.1316 20.3006 14.2725 20.3006 16.9121C20.3006 17.2868 20.343 17.6515 20.425 18.0016C16.452 17.8023 12.9292 15.8993 10.5713 13.0061C10.1598 13.712 9.92382 14.5338 9.92382 15.4098C9.92382 17.0679 10.7684 18.5318 12.0504 19.3888C11.2672 19.3642 10.5295 19.1492 9.88532 18.7902C9.88496 18.8106 9.88496 18.8309 9.88496 18.8508C9.88496 21.1671 11.5335 23.0991 13.72 23.538C13.3193 23.6478 12.8961 23.7059 12.4608 23.7059C12.152 23.7059 11.8529 23.6763 11.5613 23.6207C12.1695 25.5195 13.9346 26.9017 16.027 26.9405C14.3906 28.2229 12.3296 28.9869 10.0892 28.9869C9.70421 28.9869 9.32273 28.9645 8.94946 28.9199C11.064 30.2768 13.5774 31.0679 16.2769 31.0679C25.07 31.0679 29.8787 23.7836 29.8787 17.4658C29.8787 17.2586 29.8741 17.0522 29.8648 16.8476C30.7996 16.1738 31.61 15.332 32.2506 14.3734Z" fill="white"/>
</g>
<defs>
<clipPath id="clip0_147_892">
<rect width="40" height="40" fill="white"/>
</clipPath>
</defs>
</svg>
